<?xml version="1.0" encoding="utf-8"?>
<!-- Generator: Adobe Illustrator 16.0.0, SVG Export Plug-In . SVG Version: 6.00 Build 0)  -->
<!DOCTYPE svg PUBLIC "-//W3C//DTD SVG 1.1//EN" "http://www.w3.org/Graphics/SVG/1.1/DTD/svg11.dtd">
<svg version="1.1" id="Layer_1" xmlns="http://www.w3.org/2000/svg" xmlns:xlink="http://www.w3.org/1999/xlink" x="0px" y="0px"
	 width="49px" height="44px" viewBox="0 0 49 44" enable-background="new 0 0 49 44" xml:space="preserve">
<g transform="translate(40 1120)">
	<path fill="#58595B" d="M5.325-1117.557h-6.124v-1.224c0-0.676-0.552-1.22-1.228-1.22s-1.224,0.544-1.224,1.22v1.224h-24.502
		v-1.224c0-0.676-0.547-1.22-1.223-1.22c-0.675,0-1.227,0.544-1.227,1.22v1.224h-6.122c-2.029,0-3.676,1.644-3.676,3.667v34.223
		c0,2.022,1.647,3.664,3.676,3.664H5.325c2.025,0,3.677-1.642,3.677-3.664v-34.223C9.002-1115.913,7.351-1117.557,5.325-1117.557z
		 M-36.324-1115.112h6.122v3.666c0,0.675,0.551,1.221,1.227,1.221c0.676,0,1.223-0.546,1.223-1.221v-3.666H-3.25v3.666
		c0,0.675,0.548,1.221,1.224,1.221s1.228-0.546,1.228-1.221v-3.666h6.124c0.674,0,1.224,0.546,1.224,1.222v6.109h-44.1v-6.109
		C-37.551-1114.566-36.999-1115.112-36.324-1115.112z M5.325-1078.447h-41.649c-0.675,0-1.227-0.546-1.227-1.22v-25.666h44.1v25.666
		C6.549-1078.993,5.999-1078.447,5.325-1078.447z"/>
	<path fill="#58595B" d="M-21.626-1098.001h-2.449c-0.677,0-1.224-0.547-1.224-1.224c0-0.671,0.547-1.219,1.224-1.219h2.449
		c0.675,0,1.225,0.548,1.225,1.219C-20.402-1098.548-20.952-1098.001-21.626-1098.001z"/>
	<path fill="#58595B" d="M-14.276-1098.001h-2.447c-0.676,0-1.227-0.547-1.227-1.224c0-0.671,0.551-1.219,1.227-1.219h2.447
		c0.676,0,1.226,0.548,1.226,1.219C-13.051-1098.548-13.601-1098.001-14.276-1098.001z"/>
	<path fill="#58595B" d="M-6.925-1098.001h-2.453c-0.672,0-1.224-0.547-1.224-1.224c0-0.671,0.552-1.219,1.224-1.219h2.453
		c0.672,0,1.226,0.548,1.226,1.219C-5.699-1098.548-6.253-1098.001-6.925-1098.001z"/>
	<path fill="#58595B" d="M0.423-1098.001h-2.449c-0.676,0-1.224-0.547-1.224-1.224c0-0.671,0.548-1.219,1.224-1.219h2.449
		c0.68,0,1.228,0.548,1.228,1.219C1.65-1098.548,1.103-1098.001,0.423-1098.001z"/>
	<path fill="#58595B" d="M-28.975-1093.112h-2.45c-0.674,0-1.225-0.544-1.225-1.224c0-0.672,0.55-1.221,1.225-1.221h2.45
		c0.676,0,1.223,0.549,1.223,1.221C-27.752-1093.656-28.299-1093.112-28.975-1093.112z"/>
	<path fill="#58595B" d="M-21.626-1093.112h-2.449c-0.677,0-1.224-0.544-1.224-1.224c0-0.672,0.547-1.221,1.224-1.221h2.449
		c0.675,0,1.225,0.549,1.225,1.221C-20.402-1093.656-20.952-1093.112-21.626-1093.112z"/>
	<path fill="#58595B" d="M-14.276-1093.112h-2.447c-0.676,0-1.227-0.544-1.227-1.224c0-0.672,0.551-1.221,1.227-1.221h2.447
		c0.676,0,1.226,0.549,1.226,1.221C-13.051-1093.656-13.601-1093.112-14.276-1093.112z"/>
	<path fill="#58595B" d="M-6.925-1093.112h-2.453c-0.672,0-1.224-0.544-1.224-1.224c0-0.672,0.552-1.221,1.224-1.221h2.453
		c0.672,0,1.226,0.549,1.226,1.221C-5.699-1093.656-6.253-1093.112-6.925-1093.112z"/>
	<path fill="#58595B" d="M0.423-1093.112h-2.449c-0.676,0-1.224-0.544-1.224-1.224c0-0.672,0.548-1.221,1.224-1.221h2.449
		c0.68,0,1.228,0.549,1.228,1.221C1.65-1093.656,1.103-1093.112,0.423-1093.112z"/>
	<path fill="#58595B" d="M-28.975-1088.226h-2.45c-0.674,0-1.225-0.545-1.225-1.218c0-0.679,0.55-1.229,1.225-1.229h2.45
		c0.676,0,1.223,0.551,1.223,1.229C-27.752-1088.771-28.299-1088.226-28.975-1088.226z"/>
	<path fill="#58595B" d="M-21.626-1088.226h-2.449c-0.677,0-1.224-0.545-1.224-1.218c0-0.679,0.547-1.229,1.224-1.229h2.449
		c0.675,0,1.225,0.551,1.225,1.229C-20.402-1088.771-20.952-1088.226-21.626-1088.226z"/>
	<path fill="#58595B" d="M-14.276-1088.226h-2.447c-0.676,0-1.227-0.545-1.227-1.218c0-0.679,0.551-1.229,1.227-1.229h2.447
		c0.676,0,1.226,0.551,1.226,1.229C-13.051-1088.771-13.601-1088.226-14.276-1088.226z"/>
	<path fill="#58595B" d="M-6.925-1088.226h-2.453c-0.672,0-1.224-0.545-1.224-1.218c0-0.679,0.552-1.229,1.224-1.229h2.453
		c0.672,0,1.226,0.551,1.226,1.229C-5.699-1088.771-6.253-1088.226-6.925-1088.226z"/>
	<path fill="#58595B" d="M0.423-1088.226h-2.449c-0.676,0-1.224-0.545-1.224-1.218c0-0.679,0.548-1.229,1.224-1.229h2.449
		c0.68,0,1.228,0.551,1.228,1.229C1.65-1088.771,1.103-1088.226,0.423-1088.226z"/>
	<path fill="#58595B" d="M-28.975-1083.334h-2.45c-0.674,0-1.225-0.552-1.225-1.221c0-0.675,0.55-1.227,1.225-1.227h2.45
		c0.676,0,1.223,0.552,1.223,1.227C-27.752-1083.886-28.299-1083.334-28.975-1083.334z"/>
	<path fill="#58595B" d="M-21.626-1083.334h-2.449c-0.677,0-1.224-0.552-1.224-1.221c0-0.675,0.547-1.227,1.224-1.227h2.449
		c0.675,0,1.225,0.552,1.225,1.227C-20.402-1083.886-20.952-1083.334-21.626-1083.334z"/>
	<path fill="#58595B" d="M-14.276-1083.334h-2.447c-0.676,0-1.227-0.552-1.227-1.221c0-0.675,0.551-1.227,1.227-1.227h2.447
		c0.676,0,1.226,0.552,1.226,1.227C-13.051-1083.886-13.601-1083.334-14.276-1083.334z"/>
	<path fill="#58595B" d="M-6.925-1083.334h-2.453c-0.672,0-1.224-0.552-1.224-1.221c0-0.675,0.552-1.227,1.224-1.227h2.453
		c0.672,0,1.226,0.552,1.226,1.227C-5.699-1083.886-6.253-1083.334-6.925-1083.334z"/>
	<path fill="#58595B" d="M0.423-1083.334h-2.449c-0.676,0-1.224-0.552-1.224-1.221c0-0.675,0.548-1.227,1.224-1.227h2.449
		c0.68,0,1.228,0.552,1.228,1.227C1.65-1083.886,1.103-1083.334,0.423-1083.334z"/>
</g>
</svg>
