<?xml version="1.0" encoding="utf-8"?>
<!-- Generator: Adobe Illustrator 16.0.0, SVG Export Plug-In . SVG Version: 6.00 Build 0)  -->
<!DOCTYPE svg PUBLIC "-//W3C//DTD SVG 1.1//EN" "http://www.w3.org/Graphics/SVG/1.1/DTD/svg11.dtd">
<svg version="1.1" id="Layer_1" xmlns="http://www.w3.org/2000/svg" xmlns:xlink="http://www.w3.org/1999/xlink" x="0px" y="0px"
	 width="44px" height="44px" viewBox="0 0 44 44" enable-background="new 0 0 44 44" xml:space="preserve">
<g transform="translate(160 320)">
	<path fill="#58595B" d="M-121.233-276.007c-1.392,0-2.706-0.537-3.697-1.516h-0.003l-17.836-17.829
		c-1.43,0.544-2.936,0.81-4.487,0.81c-7.019,0-12.726-5.696-12.726-12.712c0-1.827,0.378-3.586,1.125-5.233
		c0.158-0.351,0.472-0.595,0.844-0.667c0.38-0.064,0.758,0.051,1.028,0.326l6.735,6.734h4.147v-4.155l-6.75-6.745
		c-0.271-0.271-0.389-0.653-0.318-1.026c0.068-0.377,0.313-0.686,0.657-0.847c1.604-0.722,3.424-1.111,5.262-1.111
		c7.015,0,12.721,5.709,12.721,12.724c0,1.533-0.281,3.031-0.823,4.477l17.82,17.814c0.992,0.98,1.547,2.294,1.556,3.689
		c0.005,1.4-0.538,2.716-1.517,3.711C-118.491-276.563-119.817-276.007-121.233-276.007L-121.233-276.007z M-123.302-279.162
		c0.554,0.55,1.289,0.85,2.068,0.85c0.791,0,1.533-0.313,2.089-0.875c0.551-0.555,0.85-1.289,0.85-2.072
		c0-0.781-0.312-1.506-0.866-2.061c-0.007,0-0.007,0-0.007,0l-18.373-18.364c-0.342-0.345-0.435-0.859-0.239-1.303
		c0.616-1.359,0.932-2.797,0.932-4.265c0-5.741-4.674-10.404-10.408-10.404c-0.911,0-1.802,0.11-2.664,0.329l5.793,5.789
		c0.221,0.22,0.338,0.51,0.338,0.817v5.783c0,0.637-0.521,1.153-1.158,1.153h-5.784c-0.306,0-0.597-0.117-0.818-0.335l-5.78-5.782
		c-0.232,0.86-0.345,1.745-0.345,2.652c0,5.74,4.675,10.406,10.414,10.406c1.492,0,2.934-0.309,4.288-0.914
		c0.437-0.202,0.954-0.104,1.289,0.233l18.382,18.375V-279.162z"/>
</g>
</svg>
