<?xml version="1.0" encoding="utf-8"?>
<!-- Generator: Adobe Illustrator 16.0.0, SVG Export Plug-In . SVG Version: 6.00 Build 0)  -->
<!DOCTYPE svg PUBLIC "-//W3C//DTD SVG 1.1//EN" "http://www.w3.org/Graphics/SVG/1.1/DTD/svg11.dtd">
<svg version="1.1" id="Layer_1" xmlns="http://www.w3.org/2000/svg" xmlns:xlink="http://www.w3.org/1999/xlink" x="0px" y="0px"
	 width="27px" height="25px" viewBox="0 0 27 25" enable-background="new 0 0 27 25" xml:space="preserve">
<g transform="translate(520 2400)">
	<path fill="#ED1C24" d="M-493.687-2375.817h-25.601c-0.253,0-0.488-0.134-0.614-0.353c-0.13-0.22-0.132-0.488-0.006-0.71
		l12.801-22.757c0.125-0.224,0.363-0.363,0.62-0.363c0.256,0,0.492,0.137,0.62,0.363l12.803,22.757
		c0.123,0.222,0.122,0.49-0.006,0.71C-493.195-2375.951-493.433-2375.817-493.687-2375.817z M-518.072-2377.239h23.172
		l-11.586-20.599L-518.072-2377.239z"/>
	<path fill="#ED1C24" d="M-506.486-2382.931c-0.392,0-0.711-0.315-0.711-0.712v-7.11c0-0.393,0.319-0.71,0.711-0.71
		c0.393,0,0.711,0.318,0.711,0.71v7.11C-505.774-2383.246-506.093-2382.931-506.486-2382.931z"/>
	<path fill="#ED1C24" d="M-506.486-2378.662c-0.392,0-0.711-0.319-0.711-0.711v-1.425c0-0.392,0.319-0.71,0.711-0.71
		c0.393,0,0.711,0.318,0.711,0.71v1.425C-505.774-2378.981-506.093-2378.662-506.486-2378.662z"/>
</g>
</svg>
