<?xml version="1.0" encoding="utf-8"?>
<!-- Generator: Adobe Illustrator 16.0.0, SVG Export Plug-In . SVG Version: 6.00 Build 0)  -->
<!DOCTYPE svg PUBLIC "-//W3C//DTD SVG 1.1//EN" "http://www.w3.org/Graphics/SVG/1.1/DTD/svg11.dtd">
<svg version="1.1" id="Layer_1" xmlns="http://www.w3.org/2000/svg" xmlns:xlink="http://www.w3.org/1999/xlink" x="0px" y="0px"
	 width="33px" height="33px" viewBox="0 0 33 33" enable-background="new 0 0 33 33" xml:space="preserve">
<g transform="translate(40 200)">
	<path fill="#FFF200" d="M-23.532-193.066c-0.477,0-0.867-0.388-0.867-0.867v-5.201c0-0.479,0.39-0.867,0.867-0.867
		c0.481,0,0.867,0.388,0.867,0.867v5.201C-22.665-193.454-23.051-193.066-23.532-193.066z"/>
	<path fill="#FFF200" d="M-33.933-182.664h-5.201c-0.477,0-0.867-0.388-0.867-0.867s0.39-0.867,0.867-0.867h5.201
		c0.481,0,0.867,0.388,0.867,0.867S-33.452-182.664-33.933-182.664z"/>
	<path fill="#FFF200" d="M-7.93-182.664h-5.2c-0.478,0-0.867-0.388-0.867-0.867s0.39-0.867,0.867-0.867h5.2
		c0.48,0,0.867,0.388,0.867,0.867S-7.449-182.664-7.93-182.664z"/>
	<path fill="#FFF200" d="M-23.532-167.063c-0.477,0-0.867-0.388-0.867-0.867v-5.2c0-0.479,0.39-0.867,0.867-0.867
		c0.481,0,0.867,0.388,0.867,0.867v5.2C-22.665-167.45-23.051-167.063-23.532-167.063z"/>
	<path fill="#FFF200" d="M-23.532-189.587c1.622,0,3.146,0.63,4.293,1.776c1.145,1.146,1.774,2.663,1.774,4.28
		c0,1.617-0.63,3.137-1.774,4.279c-1.147,1.145-2.672,1.776-4.293,1.776c-1.618,0-3.142-0.63-4.29-1.776
		c-1.145-1.143-1.778-2.662-1.778-4.279c0-1.617,0.633-3.137,1.778-4.28C-26.674-188.956-25.15-189.587-23.532-189.587z
		 M-23.532-191.32c-4.307,0-7.801,3.487-7.801,7.789s3.494,7.789,7.801,7.789c4.31,0,7.801-3.487,7.801-7.789
		S-19.222-191.32-23.532-191.32L-23.532-191.32z"/>
	<path fill="#FFF200" d="M-30.452-190.454c-0.224,0-0.444-0.084-0.613-0.254l-3.677-3.675c-0.338-0.339-0.338-0.889,0-1.226
		c0.339-0.339,0.887-0.339,1.226,0l3.677,3.675c0.338,0.338,0.338,0.889,0,1.226c-0.169,0.171-0.393,0.254-0.616,0.254H-30.452z"/>
	<path fill="#FFF200" d="M-34.129-171.198c-0.223,0-0.443-0.085-0.613-0.254c-0.338-0.339-0.338-0.887,0-1.226l3.677-3.677
		c0.338-0.339,0.887-0.339,1.226,0c0.338,0.338,0.338,0.887,0,1.226l-3.677,3.677c-0.169,0.169-0.393,0.254-0.616,0.254H-34.129z"/>
	<path fill="#FFF200" d="M-16.607-190.454c-0.224,0-0.443-0.084-0.613-0.254c-0.338-0.337-0.338-0.887,0-1.226l3.674-3.675
		c0.339-0.339,0.891-0.339,1.226,0c0.339,0.337,0.339,0.887,0,1.226l-3.674,3.675c-0.172,0.171-0.393,0.254-0.616,0.254H-16.607z"/>
	<path fill="#FFF200" d="M-12.931-171.198c-0.224,0-0.443-0.085-0.616-0.254l-3.674-3.677c-0.338-0.339-0.338-0.888,0-1.226
		c0.336-0.339,0.888-0.339,1.226,0l3.674,3.677c0.339,0.339,0.339,0.887,0,1.226c-0.169,0.169-0.39,0.254-0.612,0.254H-12.931z"/>
</g>
</svg>
