<?xml version="1.0" encoding="utf-8"?>
<!-- Generator: Adobe Illustrator 16.0.0, SVG Export Plug-In . SVG Version: 6.00 Build 0)  -->
<!DOCTYPE svg PUBLIC "-//W3C//DTD SVG 1.1//EN" "http://www.w3.org/Graphics/SVG/1.1/DTD/svg11.dtd">
<svg version="1.1" id="Layer_1" xmlns="http://www.w3.org/2000/svg" xmlns:xlink="http://www.w3.org/1999/xlink" x="0px" y="0px"
	 width="33px" height="33px" viewBox="0 0 33 33" enable-background="new 0 0 33 33" xml:space="preserve">
<g transform="translate(280 200)">
	<path fill="#A7A9AC" d="M-253.572-177.721h-16.519c-5.465,0-9.908-4.446-9.908-9.907c0-5.46,4.443-9.905,9.908-9.905
		c2.642,0,5.174,1.059,7.03,2.925c0.145-0.319,0.326-0.622,0.535-0.913c0.932-1.261,2.424-2.013,3.99-2.013
		c2.73,0,4.953,2.222,4.953,4.953c0,0.579-0.1,1.143-0.293,1.675c0.098,0,0.197-0.006,0.303-0.006c3.633,0,6.59,2.96,6.59,6.596
		c0,3.632-2.957,6.597-6.59,6.597V-177.721z M-270.091-195.883c-4.555,0-8.257,3.701-8.257,8.255c0,4.549,3.702,8.255,8.257,8.255
		h16.519c2.727,0,4.943-2.218,4.943-4.945c0-2.725-2.217-4.943-4.943-4.943c-0.586,0-1.156,0.101-1.693,0.296
		c-0.361,0.137-0.766-0.002-0.973-0.319c-0.213-0.321-0.174-0.744,0.088-1.025c0.59-0.623,0.914-1.428,0.914-2.273
		c0-1.824-1.479-3.302-3.299-3.302c-1.063,0-2.031,0.488-2.658,1.343c-0.379,0.513-0.602,1.118-0.643,1.748
		c-0.021,0.345-0.262,0.643-0.596,0.738c-0.338,0.093-0.701-0.03-0.902-0.319c-0.18-0.255-0.377-0.509-0.583-0.736
		C-265.486-194.872-267.736-195.883-270.091-195.883L-270.091-195.883z"/>
	<path fill="#00AEEF" d="M-275.87-172.77c-0.456,0-0.828-0.368-0.828-0.826v-1.648c0-0.459,0.372-0.823,0.828-0.823
		c0.454,0,0.825,0.364,0.825,0.823v1.648C-275.045-173.138-275.416-172.77-275.87-172.77z"/>
	<path fill="#00AEEF" d="M-269.266-172.77c-0.459,0-0.825-0.368-0.825-0.826v-1.648c0-0.459,0.366-0.823,0.825-0.823
		c0.455,0,0.825,0.364,0.825,0.823v1.648C-268.441-173.138-268.811-172.77-269.266-172.77z"/>
	<path fill="#00AEEF" d="M-262.666-172.77c-0.451,0-0.823-0.368-0.823-0.826v-1.648c0-0.459,0.372-0.823,0.823-0.823
		c0.455,0,0.826,0.364,0.826,0.823v1.648C-261.84-173.138-262.211-172.77-262.666-172.77z"/>
	<path fill="#00AEEF" d="M-256.057-172.77c-0.459,0-0.826-0.368-0.826-0.826v-1.648c0-0.459,0.367-0.823,0.826-0.823
		c0.451,0,0.82,0.364,0.82,0.823v1.648C-255.236-173.138-255.605-172.77-256.057-172.77z"/>
	<path fill="#00AEEF" d="M-249.457-172.77c-0.453,0-0.828-0.368-0.828-0.826v-1.648c0-0.459,0.375-0.823,0.828-0.823
		c0.455,0,0.828,0.364,0.828,0.823v1.648C-248.629-173.138-249.002-172.77-249.457-172.77z"/>
	<path fill="#00AEEF" d="M-252.758-169.467c-0.453,0-0.824-0.37-0.824-0.826v-1.65c0-0.456,0.371-0.826,0.824-0.826
		c0.455,0,0.824,0.37,0.824,0.826v1.65C-251.934-169.837-252.303-169.467-252.758-169.467z"/>
	<path fill="#00AEEF" d="M-259.361-169.467c-0.455,0-0.826-0.37-0.826-0.826v-1.65c0-0.456,0.371-0.826,0.826-0.826
		c0.451,0,0.826,0.37,0.826,0.826v1.65C-258.535-169.837-258.91-169.467-259.361-169.467z"/>
	<path fill="#00AEEF" d="M-265.965-169.467c-0.456,0-0.827-0.37-0.827-0.826v-1.65c0-0.456,0.371-0.826,0.827-0.826
		s0.828,0.37,0.828,0.826v1.65C-265.137-169.837-265.51-169.467-265.965-169.467z"/>
	<path fill="#00AEEF" d="M-272.568-169.467c-0.456,0-0.827-0.37-0.827-0.826v-1.65c0-0.456,0.371-0.826,0.827-0.826
		c0.455,0,0.824,0.37,0.824,0.826v1.65C-271.744-169.837-272.113-169.467-272.568-169.467z"/>
</g>
</svg>
