<?xml version="1.0" encoding="utf-8"?>
<!-- Generator: Adobe Illustrator 16.0.0, SVG Export Plug-In . SVG Version: 6.00 Build 0)  -->
<!DOCTYPE svg PUBLIC "-//W3C//DTD SVG 1.1//EN" "http://www.w3.org/Graphics/SVG/1.1/DTD/svg11.dtd">
<svg version="1.1" id="Layer_1" xmlns="http://www.w3.org/2000/svg" xmlns:xlink="http://www.w3.org/1999/xlink" x="0px" y="0px"
	 width="94px" height="80px" viewBox="0 0 94 80" enable-background="new 0 0 94 80" xml:space="preserve">
<g transform="translate(400 200)">
	<path fill="#A7A9AC" d="M-322.462-143.69c-1.155,0-2.159-0.85-2.319-2.018c-0.186-1.288,0.71-2.482,1.99-2.663
		c6.893-0.991,12.087-6.999,12.087-13.977c0-7.782-6.327-14.118-14.101-14.118c-1.611,0-3.199,0.27-4.702,0.793
		c-1.016,0.367-2.152-0.025-2.747-0.919c-0.587-0.905-0.491-2.108,0.239-2.898c1.616-1.748,2.508-4.022,2.508-6.398
		c0-5.194-4.219-9.414-9.401-9.414c-4.955,0-9.076,3.873-9.382,8.828c-0.061,0.99-0.749,1.844-1.709,2.126
		c-0.96,0.264-1.988-0.099-2.561-0.92c-4.401-6.28-11.603-10.027-19.25-10.027c-12.96,0-23.505,10.559-23.505,23.532
		c0,0.715,0.029,1.437,0.091,2.145c0.121,1.287-0.836,2.438-2.124,2.552c-1.293,0.117-2.435-0.837-2.553-2.133
		c-0.077-0.845-0.115-1.699-0.115-2.563c0-15.566,12.651-28.236,28.206-28.236c7.568,0,14.769,3.059,20.026,8.357
		c2.215-4.944,7.18-8.357,12.875-8.357c7.774,0,14.104,6.335,14.104,14.121c0,1.631-0.281,3.221-0.811,4.722
		c0.269-0.006,0.539-0.016,0.811-0.016c10.364,0,18.798,8.438,18.798,18.825c0,4.561-1.649,8.952-4.642,12.385
		c-2.968,3.392-7.043,5.617-11.481,6.247C-322.243-143.696-322.352-143.69-322.462-143.69z"/>
	<path fill="#8ED8F8" d="M-331.858-148.23h-30.55c-5.187,0-9.401-4.226-9.401-9.414c0-5.189,4.214-9.414,9.401-9.414
		c4.444,0,8.318,3.161,9.205,7.516c0.261,1.278,1.51,2.092,2.774,1.833c1.269-0.264,2.095-1.508,1.837-2.78
		c-1.335-6.533-7.147-11.275-13.816-11.275c-7.775,0-14.104,6.338-14.104,14.12c0,3.618,1.364,6.915,3.597,9.414h-17.701
		c-2.583,0-4.698-2.115-4.698-4.704c0-2.597,2.115-4.71,4.698-4.71c1.989,0,3.773,1.267,4.438,3.142
		c0.435,1.222,1.774,1.862,2.998,1.433c1.222-0.435,1.865-1.781,1.432-2.996c-1.33-3.758-4.892-6.279-8.868-6.279
		c-5.18,0-9.399,4.22-9.399,9.415c0,5.19,4.219,9.412,9.399,9.412h58.758c1.3,0,2.352-1.058,2.352-2.354
		c0-1.296-1.052-2.353-2.352-2.353V-148.23z"/>
	<path fill="#8ED8F8" d="M-381.215-119.993c-5.178,0-9.401-4.225-9.401-9.409c0-5.193,4.223-9.416,9.401-9.416h39.956
		c1.294,0,2.352,1.052,2.352,2.354c0,1.304-1.058,2.355-2.352,2.355h-39.956c-2.588,0-4.697,2.113-4.697,4.707
		c0,2.591,2.109,4.702,4.697,4.702c1.988,0,3.771-1.261,4.435-3.139c0.432-1.22,1.781-1.864,2.998-1.434
		c1.219,0.43,1.862,1.776,1.432,3.006c-1.324,3.749-4.888,6.271-8.865,6.271V-119.993z"/>
	<path fill="#8ED8F8" d="M-327.155-124.7h-28.208c-1.293,0-2.348-1.05-2.348-2.352c0-1.299,1.055-2.351,2.348-2.351h28.208
		c1.293,0,2.351,1.052,2.351,2.351C-324.805-125.75-325.862-124.7-327.155-124.7z"/>
</g>
</svg>
