<?xml version="1.0" encoding="utf-8"?>
<!-- Generator: Adobe Illustrator 16.0.0, SVG Export Plug-In . SVG Version: 6.00 Build 0)  -->
<!DOCTYPE svg PUBLIC "-//W3C//DTD SVG 1.1//EN" "http://www.w3.org/Graphics/SVG/1.1/DTD/svg11.dtd">
<svg version="1.1" id="Layer_1" xmlns="http://www.w3.org/2000/svg" xmlns:xlink="http://www.w3.org/1999/xlink" x="0px" y="0px"
	 width="33px" height="33px" viewBox="0 0 33 33" enable-background="new 0 0 33 33" xml:space="preserve">
<g transform="translate(520 200)">
	<path fill="#A7A9AC" d="M-493.606-181.026c-0.097,0-0.191,0.003-0.285,0.009c0.188-0.527,0.285-1.083,0.285-1.659
		c0-2.154-1.391-3.994-3.324-4.672c-0.276-3.839-3.491-6.876-7.403-6.876c-3.863,0-7.043,2.961-7.396,6.735
		c-4.692,0.774-8.282,4.859-8.282,9.765c0,5.46,4.442,9.901,9.903,9.901h16.501c3.641,0,6.598-2.96,6.598-6.6
		C-487.009-178.064-489.966-181.026-493.606-181.026z M-504.333-192.575c2.905,0,5.313,2.155,5.716,4.95
		c-1.978,0.023-3.692,1.218-4.465,2.932c-1.827-1.847-4.335-2.914-6.971-2.937c0.4-2.791,2.813-4.945,5.715-4.945H-504.333z
		 M-493.606-169.473h-16.501c-4.553,0-8.253-3.702-8.253-8.252s3.701-8.25,8.253-8.25c2.683,0,5.213,1.313,6.756,3.516
		c0.2,0.289,0.563,0.416,0.899,0.319c0.339-0.099,0.58-0.39,0.601-0.742c0.11-1.733,1.554-3.093,3.293-3.093
		c1.819,0,3.299,1.479,3.299,3.297c0,0.834-0.312,1.635-0.881,2.244c-0.255,0.278-0.287,0.694-0.078,1.014
		c0.206,0.317,0.603,0.455,0.959,0.327c0.529-0.186,1.086-0.282,1.654-0.282c2.727,0,4.95,2.223,4.95,4.955
		C-488.656-171.691-490.88-169.473-493.606-169.473L-493.606-169.473z"/>
	<path fill="#FFF200" d="M-504.333-195.877c-0.457,0-0.827-0.369-0.827-0.824v-1.652c0-0.454,0.37-0.824,0.827-0.824
		c0.455,0,0.824,0.37,0.824,0.824v1.652C-503.509-196.246-503.879-195.877-504.333-195.877z"/>
	<path fill="#FFF200" d="M-497.734-194.225c-0.211,0-0.419-0.082-0.582-0.238c-0.323-0.324-0.323-0.852,0-1.17l1.65-1.649
		c0.322-0.324,0.846-0.324,1.164,0c0.323,0.317,0.323,0.844,0,1.165l-1.648,1.654c-0.163,0.156-0.375,0.238-0.586,0.238H-497.734z"
		/>
	<path fill="#FFF200" d="M-492.783-189.276h-1.652c-0.452,0-0.825-0.367-0.825-0.826c0-0.456,0.373-0.822,0.825-0.822h1.652
		c0.455,0,0.825,0.366,0.825,0.822C-491.958-189.643-492.328-189.276-492.783-189.276z"/>
	<path fill="#FFF200" d="M-514.236-189.276h-1.648c-0.458,0-0.828-0.367-0.828-0.826c0-0.456,0.369-0.822,0.828-0.822h1.648
		c0.457,0,0.826,0.366,0.826,0.822C-513.41-189.643-513.779-189.276-514.236-189.276z"/>
	<path fill="#FFF200" d="M-510.936-194.225c-0.208,0-0.422-0.082-0.582-0.238l-1.651-1.654c-0.322-0.32-0.322-0.848,0-1.165
		c0.322-0.324,0.844-0.324,1.164,0l1.651,1.649c0.32,0.318,0.32,0.846,0,1.17C-510.515-194.307-510.726-194.225-510.936-194.225
		L-510.936-194.225z"/>
</g>
</svg>
