<?xml version="1.0" encoding="utf-8"?>
<!-- Generator: Adobe Illustrator 16.0.0, SVG Export Plug-In . SVG Version: 6.00 Build 0)  -->
<!DOCTYPE svg PUBLIC "-//W3C//DTD SVG 1.1//EN" "http://www.w3.org/Graphics/SVG/1.1/DTD/svg11.dtd">
<svg version="1.1" id="Layer_1" xmlns="http://www.w3.org/2000/svg" xmlns:xlink="http://www.w3.org/1999/xlink" x="0px" y="0px"
	 width="33px" height="33px" viewBox="0 0 33 33" enable-background="new 0 0 33 33" xml:space="preserve">
<g transform="translate(400 200)">
	<path fill="#939598" d="M-372.815-177.713c-0.403,0-0.754-0.296-0.816-0.704c-0.061-0.451,0.252-0.868,0.701-0.935
		c2.415-0.345,4.237-2.448,4.237-4.892c0-2.724-2.221-4.944-4.943-4.944c-0.564,0-1.124,0.093-1.65,0.282
		c-0.357,0.128-0.754-0.009-0.96-0.326c-0.208-0.316-0.176-0.737,0.079-1.011c0.57-0.614,0.881-1.408,0.881-2.243
		c0-1.817-1.478-3.295-3.293-3.295c-1.739,0-3.181,1.354-3.288,3.091c-0.021,0.348-0.264,0.646-0.601,0.745
		c-0.337,0.095-0.695-0.032-0.898-0.322c-1.541-2.197-4.064-3.509-6.749-3.509c-4.542,0-8.237,3.695-8.237,8.237
		c0,0.252,0.012,0.503,0.035,0.75c0.039,0.451-0.294,0.854-0.749,0.898c-0.454,0.038-0.853-0.297-0.892-0.75
		c-0.026-0.295-0.042-0.595-0.042-0.898c0-5.449,4.436-9.886,9.885-9.886c2.656,0,5.182,1.071,7.023,2.927
		c0.775-1.732,2.513-2.927,4.512-2.927c2.725,0,4.943,2.218,4.943,4.942c0,0.572-0.097,1.13-0.284,1.653
		c0.093-0.001,0.189-0.003,0.284-0.003c3.634,0,6.587,2.957,6.587,6.589c0,1.598-0.576,3.137-1.627,4.339
		c-1.04,1.184-2.47,1.964-4.024,2.184C-372.737-177.713-372.775-177.713-372.815-177.713z"/>
	<path fill="#939598" d="M-376.107-179.302h-10.712c-1.815,0-3.295-1.478-3.295-3.292c0-1.821,1.48-3.297,3.295-3.297
		c1.559,0,2.917,1.101,3.228,2.63c0.091,0.446,0.53,0.733,0.974,0.643c0.444-0.09,0.73-0.531,0.642-0.97
		c-0.466-2.289-2.505-3.951-4.843-3.951c-2.725,0-4.942,2.218-4.942,4.946c0,1.264,0.479,2.419,1.264,3.292h-6.205
		c-0.911,0-1.649-0.739-1.649-1.645c0-0.911,0.739-1.647,1.649-1.647c0.696,0,1.318,0.441,1.555,1.099
		c0.147,0.426,0.621,0.649,1.049,0.5c0.428-0.151,0.652-0.621,0.499-1.05c-0.463-1.313-1.709-2.199-3.104-2.199
		c-1.819,0-3.297,1.479-3.297,3.297c0,1.816,1.478,3.296,3.297,3.296h20.596c0.455,0,0.82-0.369,0.82-0.824
		c0-0.454-0.365-0.823-0.82-0.823V-179.302z"/>
	<path fill="#939598" d="M-393.409-169.417c-1.818,0-3.294-1.474-3.294-3.292s1.476-3.296,3.294-3.296h14.005
		c0.454,0,0.824,0.368,0.824,0.826c0,0.451-0.37,0.822-0.824,0.822h-14.005c-0.908,0-1.647,0.738-1.647,1.647
		c0,0.907,0.739,1.647,1.647,1.647c0.697,0,1.323-0.44,1.555-1.102c0.149-0.427,0.622-0.65,1.051-0.5
		c0.427,0.153,0.654,0.621,0.501,1.053C-390.768-170.3-392.015-169.417-393.409-169.417L-393.409-169.417z"/>
	<path fill="#939598" d="M-374.463-171.062h-9.883c-0.457,0-0.822-0.367-0.822-0.823c0-0.457,0.366-0.824,0.822-0.824h9.883
		c0.456,0,0.826,0.367,0.826,0.824C-373.637-171.429-374.007-171.062-374.463-171.062z"/>
</g>
</svg>
