<?xml version="1.0" encoding="utf-8"?>
<!-- Generator: Adobe Illustrator 16.0.0, SVG Export Plug-In . SVG Version: 6.00 Build 0)  -->
<!DOCTYPE svg PUBLIC "-//W3C//DTD SVG 1.1//EN" "http://www.w3.org/Graphics/SVG/1.1/DTD/svg11.dtd">
<svg version="1.1" id="Layer_1" xmlns="http://www.w3.org/2000/svg" xmlns:xlink="http://www.w3.org/1999/xlink" x="0px" y="0px"
	 width="33px" height="33px" viewBox="0 0 33 33" enable-background="new 0 0 33 33" xml:space="preserve">
<g transform="translate(440 200)">
	<path fill="#A7A9AC" d="M-416.064-179.791h-10.724c-1.824,0-3.308-1.479-3.308-3.299c0-1.818,1.483-3.303,3.308-3.303
		c1.557,0,2.917,1.106,3.231,2.639c0.087,0.448,0.526,0.73,0.97,0.641c0.45-0.092,0.741-0.529,0.647-0.973
		c-0.469-2.292-2.507-3.955-4.848-3.955c-2.735,0-4.959,2.222-4.959,4.952c0,1.27,0.481,2.422,1.266,3.299h-6.215
		c-0.907,0-1.651-0.742-1.651-1.652c0-0.905,0.744-1.647,1.651-1.647c0.699,0,1.324,0.442,1.557,1.102
		c0.154,0.428,0.625,0.65,1.052,0.502c0.43-0.152,0.656-0.627,0.504-1.053c-0.467-1.313-1.719-2.2-3.113-2.2
		c-1.818,0-3.303,1.48-3.303,3.301c0,1.822,1.485,3.303,3.303,3.303h20.633c0.458,0,0.827-0.371,0.827-0.828
		C-415.237-179.418-415.606-179.791-416.064-179.791L-416.064-179.791z"/>
	<path fill="#A7A9AC" d="M-433.394-169.883c-1.822,0-3.303-1.48-3.303-3.301c0-1.824,1.481-3.303,3.303-3.303h14.029
		c0.46,0,0.823,0.369,0.823,0.822c0,0.455-0.363,0.828-0.823,0.828h-14.029c-0.911,0-1.653,0.742-1.653,1.652
		c0,0.908,0.742,1.646,1.653,1.646c0.697,0,1.322-0.439,1.555-1.102c0.154-0.43,0.625-0.652,1.055-0.502
		c0.428,0.152,0.654,0.625,0.5,1.053c-0.466,1.318-1.716,2.199-3.11,2.199V-169.883z"/>
	<path fill="#A7A9AC" d="M-414.413-171.537h-9.904c-0.458,0-0.828-0.369-0.828-0.822c0-0.459,0.37-0.824,0.828-0.824h9.904
		c0.459,0,0.823,0.365,0.823,0.824C-413.59-171.906-413.954-171.537-414.413-171.537z"/>
	<path fill="#FFF200" d="M-413.647-181.443c-0.14,0-0.281-0.033-0.408-0.109c-0.396-0.225-0.534-0.729-0.305-1.126
		c0.506-0.87,0.771-1.868,0.771-2.888c0-3.188-2.589-5.779-5.775-5.779c-1.409,0-2.769,0.518-3.82,1.445
		c-0.343,0.302-0.863,0.27-1.167-0.074c-0.303-0.337-0.271-0.864,0.075-1.165c1.355-1.196,3.098-1.854,4.907-1.854
		c4.096,0,7.43,3.33,7.43,7.426c0,1.304-0.339,2.59-0.99,3.717C-413.083-181.586-413.36-181.443-413.647-181.443z"/>
	<path fill="#FFF200" d="M-419.365-194.645c-0.457,0-0.821-0.369-0.821-0.825v-1.65c0-0.458,0.364-0.827,0.821-0.827
		c0.46,0,0.823,0.369,0.823,0.827v1.65C-418.542-195.014-418.905-194.645-419.365-194.645z"/>
	<path fill="#FFF200" d="M-427.618-192.993c-0.213,0-0.422-0.084-0.584-0.244l-1.651-1.647c-0.322-0.326-0.322-0.849,0-1.169
		c0.321-0.322,0.845-0.322,1.166,0l1.65,1.65c0.321,0.316,0.321,0.846,0,1.166c-0.157,0.162-0.369,0.244-0.585,0.244H-427.618z"/>
	<path fill="#FFF200" d="M-411.112-192.993c-0.211,0-0.422-0.084-0.58-0.244c-0.32-0.32-0.32-0.85,0-1.166l1.648-1.65
		c0.323-0.322,0.843-0.322,1.17,0c0.319,0.32,0.319,0.843,0,1.169l-1.652,1.647C-410.689-193.075-410.9-192.993-411.112-192.993
		L-411.112-192.993z"/>
	<path fill="#FFF200" d="M-407.808-184.739h-1.654c-0.454,0-0.821-0.371-0.821-0.828c0-0.458,0.367-0.827,0.821-0.827h1.654
		c0.454,0,0.823,0.369,0.823,0.827C-406.984-185.109-407.354-184.739-407.808-184.739z"/>
	<path fill="#FFF200" d="M-409.462-176.486c-0.211,0-0.421-0.084-0.582-0.24l-1.648-1.652c-0.32-0.32-0.32-0.846,0-1.166
		c0.321-0.322,0.844-0.322,1.166,0l1.652,1.65c0.319,0.322,0.319,0.846,0,1.168C-409.039-176.563-409.249-176.486-409.462-176.486
		L-409.462-176.486z"/>
</g>
</svg>
