<?xml version="1.0" encoding="utf-8"?>
<!-- Generator: Adobe Illustrator 16.0.0, SVG Export Plug-In . SVG Version: 6.00 Build 0)  -->
<!DOCTYPE svg PUBLIC "-//W3C//DTD SVG 1.1//EN" "http://www.w3.org/Graphics/SVG/1.1/DTD/svg11.dtd">
<svg version="1.1" id="Layer_1" xmlns="http://www.w3.org/2000/svg" xmlns:xlink="http://www.w3.org/1999/xlink" x="0px" y="0px"
	 width="33px" height="33px" viewBox="0 0 33 33" enable-background="new 0 0 33 33" xml:space="preserve">
<g transform="translate(440 160)">
	<path fill="#BCBEC0" d="M-407.814-135.248h-13.204c-0.456,0-0.826-0.368-0.826-0.825c0-0.456,0.37-0.825,0.826-0.825h13.204
		c0.456,0,0.824,0.369,0.824,0.825C-406.99-135.616-407.358-135.248-407.814-135.248z"/>
	<path fill="#BCBEC0" d="M-409.466-143.5h-14.029c-2.731,0-4.95-2.223-4.95-4.952c0-2.728,2.219-4.952,4.95-4.952
		c2.448,0,4.555,1.824,4.902,4.245c0.063,0.45,0.482,0.763,0.934,0.699c0.451-0.063,0.766-0.481,0.7-0.934
		c-0.223-1.556-1.004-2.987-2.191-4.03c-1.202-1.049-2.745-1.629-4.344-1.629c-3.642,0-6.602,2.962-6.602,6.602
		c0,1.972,0.869,3.742,2.24,4.952h-8.016c-1.366,0-2.476-1.111-2.476-2.476c0-1.364,1.11-2.476,2.476-2.476
		c0.881,0,1.703,0.474,2.144,1.238c0.229,0.395,0.733,0.53,1.129,0.302c0.393-0.231,0.527-0.735,0.299-1.129
		c-0.736-1.274-2.106-2.062-3.572-2.062c-2.275,0-4.127,1.851-4.127,4.125c0,2.273,1.852,4.126,4.127,4.126h26.407
		c0.456,0,0.827-0.371,0.827-0.824c0-0.455-0.371-0.826-0.827-0.826V-143.5z"/>
	<path fill="#BCBEC0" d="M-432.572-131.947c-2.274,0-4.125-1.851-4.125-4.126c0-2.274,1.851-4.126,4.125-4.126h18.153
		c0.458,0,0.827,0.368,0.827,0.825s-0.369,0.825-0.827,0.825h-18.153c-1.365,0-2.476,1.111-2.476,2.476
		c0,1.365,1.11,2.477,2.476,2.477c0.882,0,1.704-0.475,2.146-1.238c0.229-0.395,0.733-0.529,1.128-0.302
		c0.393,0.23,0.528,0.734,0.3,1.129C-429.735-132.735-431.106-131.946-432.572-131.947L-432.572-131.947z"/>
</g>
</svg>
